<svg width="158" height="30" viewBox="0 0 158 30" fill="none" xmlns="http://www.w3.org/2000/svg">
<path d="M14.8622 0.908852C22.3222 0.256186 28.8979 5.77543 29.5504 13.2337C30.2029 20.692 24.6838 27.2694 17.2255 27.9219C9.76721 28.5745 3.18826 23.0572 2.53559 15.5972C2.34472 13.4155 2.68155 11.3081 3.44046 9.40459C3.96936 8.0768 3.5598 6.56104 2.42273 5.69551L1.52537 5.01371C0.300088 4.08365 0.863985 2.13353 2.39525 1.99957L14.8622 0.908852Z" fill="#FFF171"/>
<path fill-rule="evenodd" clip-rule="evenodd" d="M28.6964 13.3089C28.0851 6.32189 21.925 1.15146 14.9364 1.76287L2.46952 2.85359C1.71847 2.9193 1.4424 3.87576 2.04301 4.33166L2.941 5.01394L2.94131 5.01417C4.3889 6.11608 4.90525 8.04211 4.23607 9.72211L4.23597 9.72236C3.52557 11.5042 3.20981 13.4775 3.38876 15.523C4.00017 22.5114 10.1633 27.6801 17.1504 27.0688C24.1373 26.4575 29.3077 20.2957 28.6964 13.3089ZM14.7871 0.0557193C22.7186 -0.638197 29.7098 5.22984 30.4035 13.1595C31.0973 21.0892 25.2295 28.0822 17.2998 28.776C9.37028 29.4697 2.37554 23.604 1.68161 15.6723C1.47883 13.3545 1.83669 11.1131 2.64405 9.08796C2.64408 9.08788 2.64411 9.0878 2.64414 9.08772C3.03257 8.11226 2.72987 7.00702 1.90355 6.3779C1.90349 6.37785 1.90342 6.37779 1.90335 6.37774L1.00691 5.69664C1.00685 5.6966 1.0068 5.69656 1.00674 5.69651C1.00669 5.69648 1.00665 5.69644 1.0066 5.69641C-0.842933 4.2921 0.00882364 1.34865 2.32017 1.14643L14.7871 0.0557193Z" fill="white"/>
<path d="M21.9154 26.6401C18.6838 27.231 15.2221 26.4339 12.5153 24.1626C9.25537 21.4272 7.7934 17.1429 8.69711 12.9819C9.10799 11.0916 8.37219 9.11072 6.82287 7.93723L0.877111 3.43555C0.793561 3.99807 0.986321 4.60467 1.52537 5.01383L2.42274 5.69564C3.5598 6.56117 3.96936 8.07692 3.44046 9.40472C2.68155 11.3082 2.34472 13.4157 2.53559 15.5973C3.18826 23.0574 9.76721 28.5746 17.2255 27.9221C18.9029 27.7753 20.4823 27.3288 21.9154 26.6401Z" fill="url(#paint0_linear_1671_594)"/>
<path d="M23.0665 12.2707C23.9883 12.2707 24.7356 11.5235 24.7356 10.6017C24.7356 9.67988 23.9883 8.93262 23.0665 8.93262C22.1447 8.93262 21.3975 9.67988 21.3975 10.6017C21.3975 11.5235 22.1447 12.2707 23.0665 12.2707Z" fill="#221F20"/>
<path d="M12.8722 14.0149C13.794 14.0149 14.5412 13.2676 14.5412 12.3458C14.5412 11.424 13.794 10.6768 12.8722 10.6768C11.9504 10.6768 11.2031 11.424 11.2031 12.3458C11.2031 13.2676 11.9504 14.0149 12.8722 14.0149Z" fill="#221F20"/>
<path d="M18.1251 13.2063C19.0469 13.2063 19.7942 12.459 19.7942 11.5372C19.7942 10.6154 19.0469 9.86816 18.1251 9.86816C17.2033 9.86816 16.4561 10.6154 16.4561 11.5372C16.4561 12.459 17.2033 13.2063 18.1251 13.2063Z" fill="#221F20"/>
<path d="M102.334 8.79173H106.836V10.8893C107.818 9.59826 109.251 8.5498 112.116 8.5498V12.8269H111.707C108.841 12.8269 106.836 14.844 106.836 17.8288V28.9599H102.334V8.79173Z" fill="#221F20"/>
<path d="M114.735 0.72409L119.238 0.240234V28.9598H114.735V0.72409Z" fill="#221F20"/>
<path d="M129.084 23.705C131.157 25.2922 134.287 25.3158 136.499 23.3963C136.916 23.0386 137.296 22.6411 137.633 22.2096L142.455 22.2866C141.793 23.8432 140.732 25.3124 139.313 26.5444C134.859 30.4103 128.336 29.9457 124.493 25.6478C120.65 21.35 121.007 14.9129 125.369 11.1269C129.73 7.34082 136.254 7.80542 140.096 12.1033C140.441 12.4876 140.754 12.899 141.032 13.3334L129.084 23.705ZM126.586 20.6052L134.756 13.5132C132.858 12.366 130.063 12.5347 128.128 14.2142C126.193 15.8937 125.671 18.6049 126.586 20.6052Z" fill="#221F20"/>
<path d="M148.175 22.3043C148.175 23.9985 149.526 25.0062 150.877 25.0062C152.432 25.0062 153.497 24.119 153.497 22.5056C153.497 20.2466 151.491 20.0854 149.485 19.5208C147.439 18.9559 145.229 17.3829 145.229 14.117C145.229 10.8902 147.766 8.55078 150.877 8.55078C153.005 8.55078 154.602 9.47843 155.748 11.1322L152.964 13.8341C152.637 13.0266 151.982 12.5027 151.163 12.5027C150.099 12.5027 149.526 13.3101 149.526 14.1176C149.526 15.8928 151.819 15.8521 154.028 16.6589C156.116 17.4254 157.999 18.9984 157.999 22.427C157.999 26.4609 155.011 29.2038 150.877 29.2038C146.661 29.2038 143.878 26.1379 143.878 22.3062L148.175 22.3043Z" fill="#221F20"/>
<path d="M45.8102 25.0058C49.2892 25.0058 51.7447 22.5052 51.7447 18.875H56.2473C56.2473 24.7642 51.7447 29.2012 45.8102 29.2012C39.7933 29.2012 35.332 24.8043 35.332 18.875C35.332 12.9458 39.7933 8.54883 45.8102 8.54883C49.0024 8.54883 51.4173 9.7184 53.3002 11.6144L49.9847 14.5588C48.9618 13.4697 47.6108 12.7436 45.8102 12.7436C42.2901 12.7436 39.9172 15.2445 39.9172 18.875C39.9172 22.5055 42.2901 25.0058 45.8102 25.0058Z" fill="#221F20"/>
<path d="M58.2119 0.72409L62.7142 0.240234V11.0907C63.9432 9.63878 65.9068 8.54964 68.5671 8.54964C73.4381 8.54964 76.4259 11.4941 76.4259 16.8587V28.9598H71.9236V17.8267C71.9236 14.6801 70.573 12.7441 67.462 12.7441C64.5561 12.7441 62.7142 14.882 62.7142 17.8267V28.9598H58.2119V0.72409Z" fill="#221F20"/>
<path d="M99.019 8.79116V28.9594H94.4351V26.8637C93.5755 27.9528 91.3242 29.2032 88.5819 29.2032C82.7289 29.2032 78.3086 24.9273 78.3086 18.877C78.3086 12.8266 82.7289 8.55078 88.5819 8.55078C91.2835 8.55078 93.5755 9.8011 94.4351 10.8902V8.79116H99.019ZM88.7458 12.8263C85.3486 12.8263 82.7289 15.5692 82.7289 18.877C82.7289 22.1848 85.3486 24.9273 88.7458 24.9273C92.0612 24.9273 94.5987 22.1848 94.5987 18.877C94.5987 15.5692 92.0612 12.8263 88.7458 12.8263Z" fill="#221F20"/>
<defs>
<linearGradient id="paint0_linear_1671_594" x1="2.324" y1="10.4466" x2="19.1016" y2="30.2953" gradientUnits="userSpaceOnUse">
<stop stop-color="white"/>
<stop offset="1" stop-color="white" stop-opacity="0"/>
</linearGradient>
</defs>
</svg>
