<svg width="80" height="52" viewBox="0 0 80 52" fill="none" xmlns="http://www.w3.org/2000/svg">
<rect x="25.1164" y="2.79069" width="22.5267" height="46.3104" rx="4.65116" fill="white" stroke="#221F20" stroke-width="5.58139"/>
<mask id="path-2-inside-1_294_1202" fill="white">
<path d="M22.3255 7.44184C22.3255 3.33183 25.6574 0 29.7674 0H42.7906C46.9007 0 50.2325 3.33183 50.2325 7.44185V22.3255H24.186C23.1585 22.3255 22.3255 21.4926 22.3255 20.4651V7.44184Z"/>
</mask>
<path d="M22.3255 7.44184C22.3255 3.33183 25.6574 0 29.7674 0H42.7906C46.9007 0 50.2325 3.33183 50.2325 7.44185V22.3255H24.186C23.1585 22.3255 22.3255 21.4926 22.3255 20.4651V7.44184Z" fill="white" stroke="#221F20" stroke-width="11.1628" mask="url(#path-2-inside-1_294_1202)"/>
<circle cx="8.27585" cy="26.2065" r="5.48516" fill="#FFF171" stroke="#221F20" stroke-width="5.58139"/>
<circle cx="71.3513" cy="8.64912" r="5.85794" fill="#FFF171" stroke="#221F20" stroke-width="5.58139"/>
<circle cx="71.3514" cy="43.2436" r="5.85794" fill="#FFF171" stroke="#221F20" stroke-width="5.58139"/>
<path d="M13.7932 26.2075H24.8277" stroke="#221F20" stroke-width="5.58139"/>
<path d="M45.4056 25.9449H50.9461C55.7226 25.9449 59.5947 29.817 59.5947 34.5936V35.8098C59.5947 39.9146 62.9224 43.2422 67.0272 43.2422V43.2422" stroke="#221F20" stroke-width="5.58139"/>
<path d="M45.4055 25.945H50.9461C55.7226 25.945 59.5947 22.0729 59.5947 17.2963V16.0801C59.5947 11.9753 62.9223 8.64771 67.0271 8.64771V8.64771" stroke="#221F20" stroke-width="5.58139"/>
</svg>
